Coordinates
version=1
nRows=15
nColumns=34
inDegrees=yes

Units are S.I. units (second, meters, Newtons, ...)
If the header above contains a line with 'inDegrees', this indicates whether rotational values are in degrees (yes) or radians (no).

endheader
time	pelvis_tilt	pelvis_list	pelvis_rotation	pelvis_tx	pelvis_ty	pelvis_tz	hip_flexion_r	hip_adduction_r	hip_rotation_r	knee_angle_r	ankle_angle_r	subtalar_angle_r	mtp_angle_r	hip_flexion_l	hip_adduction_l	hip_rotation_l	knee_angle_l	ankle_angle_l	subtalar_angle_l	mtp_angle_l	lumbar_extension	lumbar_bending	lumbar_rotation	arm_flex_r	arm_add_r	arm_rot_r	elbow_flex_r	pro_sup_r	arm_flex_l	arm_add_l	arm_rot_l	elbow_flex_l	pro_sup_l
      9.06666670	      0.66964835	      1.04907100	      2.46396155	      0.09297441	      1.00070857	      0.04258458	     -8.31608080	     -4.08089656	     -6.83365755	      0.00000000	      7.05125264	    -10.26455716	      0.00000000	     -7.45974192	     -0.06945011	     -9.39493893	      0.00000000	      6.47271825	     -2.49282071	      0.00000000	     -5.27981792	     11.43447033	      0.61288467	      1.16643856	     -8.94838320	      0.36662901	     11.37748762	     88.00543722	     -3.45821372	     -6.00283456	      5.41511056	     16.49757884	     82.74310659
      9.08333330	      0.63616422	      1.23634244	      2.48055629	      0.09204481	      0.99921729	      0.04121450	     -8.32968747	     -4.33122496	     -6.85717776	      0.00000000	      7.07138783	    -10.34140081	      0.00000000	     -7.44995944	      0.17904346	     -9.39640581	      0.00000000	      6.52224674	     -2.42151564	      0.00000000	     -5.24063678	     12.07713069	      0.72273726	      1.13418606	     -9.27511387	      0.27036890	     11.25906685	     87.90781351	     -3.68981190	     -6.19351073	      5.48154913	     16.43869784	     82.74452323
      9.10000000	      0.48337591	      1.29713333	      2.49980888	      0.09307558	      0.99885630	      0.04052104	     -8.21418100	     -4.44668555	     -6.54597573	      0.00000000	      6.70336440	    -11.23735018	      0.00000000	     -7.33377754	      0.28200616	     -9.91839247	      0.00000000	      7.05199294	     -1.17319231	      0.00000000	     -4.94908457	     13.05461793	      0.80632699	      1.16876222	     -9.32024673	     -1.97766043	     10.58123204	     84.19546255	     -4.01360753	     -6.55495370	      8.61463734	     16.51509713	     82.58596472
      9.11666670	      0.48373452	      1.45247324	      2.47805550	      0.09280128	      1.00327196	      0.03928807	     -8.25191021	     -4.68459203	     -6.61921829	      0.00000000	      6.65141294	    -11.20013514	      0.00000000	     -7.41042381	      0.49924751	     -9.96550400	      0.00000000	      6.97900411	     -1.21792234	      0.00000000	     -4.84328231	     13.85700920	      1.00032780	      1.08987803	     -9.73975358	     -2.00346236	     10.53851334	     84.13108884	     -4.26223353	     -6.65853390	      8.62395810	     16.42322211	     82.55793470
      9.13333330	      0.41266005	      1.45943455	      2.43094844	      0.09256517	      1.00562140	      0.03754755	     -8.14835801	     -4.78678672	     -6.61930786	      0.00000000	      6.55484816	    -11.04743030	      0.00000000	     -7.36395159	      0.58852498	    -10.04349436	      0.00000000	      6.85931300	     -1.25733117	      0.00000000	     -4.73241496	     14.97479621	      1.17764026	      0.98415316	    -10.16208719	     -2.05915843	     10.44810191	     83.96237907	     -4.46817102	     -6.58994083	      8.71126854	     16.33183320	     82.49611661
      9.15000000	      0.41105632	      1.56663439	      2.42125518	      0.09530595	      1.00508003	      0.03753051	     -8.16475832	     -4.97910578	     -6.61533879	      0.00000000	      6.46306995	    -10.96101379	      0.00000000	     -7.43891454	      0.76411926	    -10.07149884	      0.00000000	      6.77370743	     -1.20450595	      0.00000000	     -4.59064244	     15.92842215	      1.25341899	      0.83215841	    -10.54167010	     -2.14137097	     10.30188606	     83.79738540	     -4.77221743	     -6.65239296	      8.80154032	     16.19218284	     82.43880469
      9.16666670	      0.39168894	      1.62578784	      2.45483470	      0.09361004	      1.00094217	      0.03684775	     -8.16325948	     -5.10773710	     -6.59416861	      0.00000000	      6.44848397	    -10.91846424	      0.00000000	     -7.44944383	      0.88666809	    -10.07947961	      0.00000000	      6.82241109	     -1.13928985	      0.00000000	     -4.47121768	     16.96927641	      1.32534090	      0.76951867	    -10.93739527	     -2.25482406	     10.14134326	     83.60678577	     -5.02017093	     -6.77278840	      8.90733040	     16.08851949	     82.37151451
      9.18333330	      0.40091680	      1.81992349	      2.49446293	      0.09432970	      1.00208070	      0.03541504	     -8.19565044	     -5.38801581	     -6.63474182	      0.00000000	      6.38745082	    -10.92923359	      0.00000000	     -7.50317694	      1.13882821	    -10.09315714	      0.00000000	      6.78412691	     -1.09840269	      0.00000000	     -4.43525680	     17.77614045	      1.36126914	      0.67965396	    -11.23896112	     -2.31051379	     10.04927177	     83.54274280	     -5.23911709	     -7.06942956	      8.91630379	     15.97797615	     82.34562548
      9.20000000	      0.26052830	      1.78659574	      2.62219964	      0.09584690	      1.00498829	      0.03394505	     -8.10196058	     -5.42364644	     -6.65572348	      0.00000000	      6.09705784	    -10.92778227	      0.00000000	     -7.38510654	      1.15539451	    -10.28016140	      0.00000000	      6.78325861	     -0.83653071	      0.00000000	     -4.06285475	     19.02845220	      1.19702620	      0.68288404	    -11.67193104	     -2.68024711	      9.68866999	     82.99957839	     -5.61956336	     -7.10713192	      9.35425585	     15.85741160	     82.16922163
      9.21666670	      0.29269081	      2.00436146	      2.71194754	      0.09457372	      1.00192467	      0.03250988	     -8.19804041	     -5.75536105	     -6.70422559	      0.03424840	      6.06483423	    -10.99403780	      0.00000000	     -7.44814414	      1.47615690	    -10.29015599	      0.00000000	      6.73829658	     -0.79082919	      0.00000000	     -4.01198595	     19.90881326	      1.19817597	      0.55644394	    -12.10799990	     -2.76615118	      9.57222991	     82.90397840	     -5.85139804	     -7.29949535	      9.41206559	     15.78658947	     82.13538603
      9.23333330	      0.06725935	      2.02242822	      2.79060898	      0.09458323	      0.99862974	      0.03180002	     -7.85397258	     -5.86622091	     -6.62594559	      0.32155278	      5.92862734	    -11.39913762	      0.00000000	     -7.23789535	      1.56315663	    -10.40457274	      0.00000000	      6.81142988	     -0.53281579	      0.00000000	     -3.51537207	     21.18735849	      1.76513660	     -0.31171237	    -12.27431044	     -5.26612770	     10.16404503	     72.63862052	     -5.48132431	     -8.14643851	     18.75574336	     15.36211691	     75.58715522
      9.25000000	      0.08338512	      2.13433517	      2.86611567	      0.09797060	      1.00405345	      0.03018829	     -7.84296803	     -6.08125667	     -6.89017077	      0.52244869	      5.64632995	    -11.50588285	      0.00000000	     -7.30645860	      1.74183557	    -10.49346696	      0.00000000	      6.58715962	     -0.41513890	      0.00000000	     -3.51220528	     22.29423232	      1.67051261	     -0.37666927	    -12.78243722	     -5.23695123	      9.98790308	     72.60524544	     -5.73399963	     -8.17483694	     18.77724172	     15.39663041	     75.47586347
      9.26666670	      0.09939771	      2.21049864	      2.90747925	      0.09823617	      1.00190140	      0.03018358	     -7.85668174	     -6.22678153	     -7.01596918	      0.64681875	      5.51201091	    -11.64443042	      0.00000000	     -7.35608916	      1.87783090	    -10.60625550	      0.00000000	      6.52895867	     -0.36870063	      0.00000000	     -3.39632052	     23.40919222	      1.53787906	     -0.48013208	    -13.24754478	     -5.22867618	      9.79732821	     72.54908619	     -6.08044346	     -8.33051866	     18.83594610	     15.44495843	     75.35138510
      9.28333330	      0.00718063	      2.23830578	      2.98538209	      0.10049468	      1.00309377	      0.02678179	     -7.78459844	     -6.34210581	     -7.11704233	      0.76401528	      5.30389869	    -11.78696158	      0.00000000	     -7.27935737	      1.98987973	    -10.60955624	      0.00000000	      6.49004055	     -0.13844085	      0.00000000	     -3.10807672	     24.63788438	      1.27350228	     -0.60222736	    -13.78287359	     -5.23438587	      9.52862395	     72.42931170	     -6.59901026	     -8.45067252	     19.01811708	     15.63548101	     75.14409851
      9.30000000	      0.05058996	      2.45037975	      3.02768094	      0.09965886	      1.00388059	      0.02532221	     -7.84526189	     -6.68395763	     -7.16989544	      0.90298583	      5.27052157	    -11.85351228	      0.00000000	     -7.37823646	      2.31052200	    -10.63253999	      0.04075470	      6.45702984	     -0.08665517	      0.00000000	     -2.99426297	     25.50937749	      1.19702587	     -0.79752463	    -14.34352034	     -5.27456503	      9.38054044	     72.38226558	     -6.91902762	     -8.62166528	     19.06656002	     15.62240501	     75.08566718
